<?xml version="1.0" encoding="UTF-8" standalone="no"?>
<svg
   xmlns:dc="http://purl.org/dc/elements/1.1/"
   xmlns:cc="http://creativecommons.org/ns#"
   xmlns:rdf="http://www.w3.org/1999/02/22-rdf-syntax-ns#"
   xmlns:svg="http://www.w3.org/2000/svg"
   xmlns="http://www.w3.org/2000/svg"
   viewBox="0 0 4000 4000"
   height="4000"
   width="4000"
   xml:space="preserve"
   id="svg2"
   version="1.1"><metadata
     id="metadata8"><rdf:RDF><cc:Work
         rdf:about=""><dc:format>image/svg+xml</dc:format><dc:type
           rdf:resource="http://purl.org/dc/dcmitype/StillImage" /></cc:Work></rdf:RDF></metadata><defs
     id="defs6" /><g
     transform="matrix(1.3333333,0,0,-1.3333333,0,4000)"
     id="g10"><g
       transform="scale(0.1)"
       id="g12"><g
         transform="scale(1.47239)"
         id="g18"><path
           id="path20"
           style="fill:#415f81;fill-opacity:1;fill-rule:nonzero;stroke:none"
           d="m 16300,10187.5 c 0,-298.76 -21.4,-592.37 -63.2,-879.73 C 15961,7391.3 14795.8,5762.32 13173,4852.31 c -11,-6.12 -22,-12.5 -33.2,-18.61 -0.2,-0.28 -0.7,-0.28 -1,-0.48 -47.9,-26.48 -96.2,-52.23 -144.9,-77.42 -239.4,-124.09 -488.2,-232.55 -745,-324.51 C 11605.1,4200.58 10911.1,4075 10187.5,4075 6811.64,4075 4075,6811.63 4075,10187.5 c 0,3375.9 2736.64,6112.5 6112.5,6112.5 3200.6,0 5826.5,-2459.8 6090.4,-5591.9 7.1,-82.8 12.5,-166.1 16,-249.6 1.8,-39.3 3,-78.9 4.1,-118.5 0.7,-28.2 1.3,-56.7 1.5,-85 0.5,-22.4 0.5,-45.1 0.5,-67.5" /></g><g
         transform="scale(1.47239)"
         id="g22"><path
           id="path24"
           style="fill:#314761;fill-opacity:1;fill-rule:nonzero;stroke:none"
           d="m 16300,10187.5 c 0,-298.76 -21.4,-592.37 -63.2,-879.73 C 15961,7391.3 14795.8,5762.32 13173,4852.31 c -11,-6.12 -22,-12.5 -33.2,-18.61 -0.2,-0.28 -0.7,-0.28 -1,-0.48 -47.9,-26.48 -96.2,-52.23 -144.9,-77.42 -239.4,-124.09 -488.2,-232.55 -745,-324.51 l -3459.4,2063.51 1483.8,7679.8 6004.6,-3466.5 c 7.1,-82.8 12.5,-166.1 16,-249.6 1.8,-39.3 3,-78.9 4.1,-118.5 0.7,-28.2 1.3,-56.7 1.5,-85 0.5,-22.4 0.5,-45.1 0.5,-67.5" /></g><g
         transform="scale(1.28254)"
         id="g26"><path
           id="path28"
           style="fill:#8ab1d7;fill-opacity:1;fill-rule:nonzero;stroke:none"
           d="m 14539.9,8852.15 c 0,0 -46.4,-161.71 -194.4,-399.21 -148,-237.5 -259.1,-342.68 -259.1,-342.68 -44.5,-51.93 -90.5,-102.14 -137.9,-150.48 -141.7,-144.02 -296.6,-271.03 -457.7,-373.87 0,0 -114.7,-78.99 -269.6,-150.25 -154.9,-71.35 -304.4,-127.01 -304.4,-127.01 -348.9,-122.89 -739.1,-187.84 -1167.1,-194 -6.5,0 -12.7,-0.23 -19.1,-0.23 -16.4,0 -32.9,-0.24 -49.5,-0.24 h -14.5 c -85.6,0.24 -169.6,2.73 -252.2,7.57 -598.5,35.24 -1117.1,191.03 -1545.36,464.16 -449.19,286.23 -849.57,761.85 -1049.09,1266.24 -242.33,613 -310.87,1380.15 -24.64,2068.25 243.74,585.8 559.67,1131.3 1137.43,1911.4 72.26,97.3 141.06,194.5 206.66,291.1 0,0 50.2,79.8 142.9,224.2 92.5,144.4 136.7,214.9 136.7,214.9 51.3,86 100.3,171.2 146.8,255.2 656,1186.8 836.8,2151.4 851.6,2224.2 27.6,136.4 113.2,251.7 249.2,258.4 3,0 6,0.2 8.9,0.2 h 5.8 c 40.3,-0.5 78.7,-9.9 112.8,-26.9 21.6,-10.6 41.6,-24.2 59.4,-40.1 7.1,-6.4 13.8,-13.1 19.7,-20.2 39.1,-46.3 55.3,-108.2 69.1,-174 16.5,-78.7 305.8,-1611.8 1484.8,-3207 491.8,-665.4 922.3,-1296.8 1137.5,-1911.4 246.1,-703.5 217.6,-1455.25 -24.7,-2068.25" /></g><path
         id="path30"
         style="fill:#a9c8eb;fill-opacity:1;fill-rule:nonzero;stroke:none"
         d="m 14962.8,9124.2 c -2708.6,325 -3343.2,2307.4 -3343.2,2307.4 -310.8,786.2 -318.4,1515 -13.1,2420.7 294.4,873.5 755.7,1226.8 755.7,1226.8 0,0 -1073.6,-2511.9 -19.7,-4180.8 942.2,-1491.7 2620.3,-1774.1 2620.3,-1774.1" /><g
         transform="scale(1.28254)"
         id="g32"><path
           id="path34"
           style="fill:#7b9dbf;fill-opacity:1;fill-rule:nonzero;stroke:none"
           d="m 14539.9,8852.15 c 0,0 -46.4,-161.71 -194.4,-399.21 -148,-237.5 -259.1,-342.68 -259.1,-342.68 -44.5,-51.93 -90.5,-102.14 -137.9,-150.48 -141.7,-144.02 -296.6,-271.03 -457.7,-373.87 0,0 -114.7,-78.99 -269.6,-150.25 -154.9,-71.35 -304.4,-127.01 -304.4,-127.01 -348.9,-122.89 -739.1,-187.84 -1167.1,-194 2732.9,579.4 2618,3097.25 1957.4,4257.45 -607,1066.1 -938.6,1326.3 -1458.9,2458.8 -221.6,482.1 -577.5,1867.6 -572.7,2469.1 h 5.8 c 66.1,-0.7 126.3,-25.8 172.2,-67 53.8,-47.4 72.9,-118.2 88.8,-194.2 16.5,-78.7 305.8,-1611.8 1484.8,-3207 491.8,-665.4 922.3,-1296.8 1137.5,-1911.4 246.1,-703.5 217.6,-1455.25 -24.7,-2068.25" /></g><path
         id="path36"
         style="fill:#537aa6;fill-opacity:1;fill-rule:nonzero;stroke:none"
         d="m 13781.8,14828 c -173.6,0 -316.6,-58.4 -437.3,-178.3 -120.5,-119.6 -179,-262.5 -179,-437 0,-174.7 58.2,-317.9 177.9,-437.6 119.8,-119.4 263.3,-177.6 438.4,-177.6 171.9,0 314.1,58.5 434.8,179 120.7,120.4 179.3,263.1 179.3,436.2 0,171.6 -58.7,313.9 -179.6,435 l -0.1,0.1 c -120.7,121.2 -262.8,180.2 -434.4,180.2 z m 0,-1584.7 c -269.9,0 -501.5,94.6 -688.6,281.2 -187.1,187 -281.9,418.5 -281.9,688.2 0,270 95.5,501.6 283.7,688.3 187.6,186.5 418.7,281.1 686.8,281.1 266.8,0 497.4,-95.7 685.3,-284.4 187.8,-188.1 282.9,-418.6 282.9,-685 0,-268.2 -95.3,-499.3 -283.3,-686.9 -187.7,-187.4 -418.2,-282.5 -684.9,-282.5" /><path
         id="path38"
         style="fill:#3b5674;fill-opacity:1;fill-rule:nonzero;stroke:none"
         d="m 13881.5,11419.4 c -35.5,0 -71.3,10.6 -102.4,32.7 -79.7,56.6 -98.5,167.2 -41.8,246.9 l 2173.1,3059.9 c 56.7,79.7 167.3,98.4 246.9,41.8 79.8,-56.6 98.5,-167.1 41.9,-246.9 L 14026,11493.9 c -34.5,-48.6 -89.1,-74.5 -144.5,-74.5" /><g
         transform="scale(1.06198)"
         id="g40"><path
           id="path42"
           style="fill:#3b5674;fill-opacity:1;fill-rule:nonzero;stroke:none"
           d="m 15388.3,12142.3 c -163.7,0 -298.3,-54.9 -411.6,-167.9 -113.6,-113 -168.8,-248 -168.8,-412.6 0,-164.8 54.7,-299.4 167.2,-411.2 113,-112.4 248,-166.9 413.2,-166.9 161.7,0 295.5,55.3 409.2,168.9 113.8,113.8 169.1,247.6 169.1,409.2 0,163.4 -55.3,298 -169,411.4 0,0.1 -0.1,0.1 -0.1,0.1 -113.6,113.7 -247.5,169 -409.2,169 z m 0,-1492.1 c -254.2,0 -472.3,88.8 -648.3,264 -176.2,175 -265.6,392.9 -265.6,647.6 0,254.5 89.9,472.8 267,648.8 176.2,175.8 393.9,265.1 646.9,265.1 251,0 468.1,-89.6 645,-266.6 177,-176.6 266.7,-394.4 266.7,-647.3 0,-251.1 -89.7,-468 -266.7,-645 -176.9,-176.9 -394,-266.6 -645,-266.6" /></g></g></g></svg>