<?xml version="1.0" encoding="UTF-8" standalone="no"?>
<svg
   xmlns:dc="http://purl.org/dc/elements/1.1/"
   xmlns:cc="http://creativecommons.org/ns#"
   xmlns:rdf="http://www.w3.org/1999/02/22-rdf-syntax-ns#"
   xmlns:svg="http://www.w3.org/2000/svg"
   xmlns="http://www.w3.org/2000/svg"
   viewBox="0 0 4000 4000"
   height="4000"
   width="4000"
   xml:space="preserve"
   id="svg2"
   version="1.1"><metadata
     id="metadata8"><rdf:RDF><cc:Work
         rdf:about=""><dc:format>image/svg+xml</dc:format><dc:type
           rdf:resource="http://purl.org/dc/dcmitype/StillImage" /></cc:Work></rdf:RDF></metadata><defs
     id="defs6" /><g
     transform="matrix(1.3333333,0,0,-1.3333333,0,4000)"
     id="g10"><g
       transform="scale(0.1)"
       id="g12"><g
         transform="scale(1.84049)"
         id="g14"><path
           id="path16"
           style="fill:#000000;fill-opacity:1;fill-rule:nonzero;stroke:none"
           d="M 16300,0 H 0 V 16300 H 16300 V 0" /></g><g
         transform="scale(1.47239)"
         id="g18"><path
           id="path20"
           style="fill:#d0e0ef;fill-opacity:1;fill-rule:nonzero;stroke:none"
           d="m 16300,10187.5 c 0,-299.24 -21.9,-592.91 -64.2,-879.18 -23.4,-167.82 -55.5,-334.15 -93.4,-497.9 -4.4,-21.93 -10.5,-42.31 -14.8,-64.18 -11.7,-45.37 -21.7,-90.4 -34.9,-135.77 -10.2,-42.51 -21.9,-86.11 -35.2,-128.63 -417.7,-1444.04 -1353.6,-2666.34 -2593.2,-3454.85 -95,-61.33 -192.5,-118.38 -292.1,-173.67 -10.2,-7.4 -21.7,-13.24 -32.1,-19.08 -1.6,0 -1.6,0 -1.6,-1.56 -188.4,-103.64 -384,-198.39 -585.5,-281.65 -80.2,-33.89 -161.2,-66.02 -243.2,-96.31 l -51.9,-19.08 c -15,-5.64 -30.1,-10.94 -45.1,-16.3 l -35.7,-12.5 -1.7,-0.47 C 11552.1,4191.41 10883,4075 10187.5,4075 6811.64,4075 4075,6811.63 4075,10187.5 c 0,3375.9 2736.64,6112.5 6112.5,6112.5 2885.4,0 5302,-1999 5944.4,-4687.5 19.6,-80.7 37.4,-162.2 53.3,-244.3 1.2,-5.3 2.3,-10.9 3.3,-16.3 2,-9.4 3.8,-18.9 5.5,-28.2 6.2,-32.4 12,-65.2 17.6,-97.8 41.3,-242 68.6,-488.8 79.8,-739.6 0.4,-9 1,-18.1 1.2,-27.3 3.1,-39.2 4.6,-78.7 4.6,-119.7 1.2,-49.7 2.8,-100.6 2.8,-151.8" /></g><g
         transform="scale(1.47239)"
         id="g22"><path
           id="path24"
           style="fill:#b9c7d4;fill-opacity:1;fill-rule:nonzero;stroke:none"
           d="m 16300,10187.5 c 0,-299.24 -21.9,-592.91 -64.2,-879.18 -23.4,-167.82 -55.5,-334.15 -93.4,-497.9 -4.4,-21.93 -10.5,-42.31 -14.8,-64.18 -11.7,-45.37 -21.7,-90.4 -34.9,-135.77 -10.2,-42.51 -21.9,-86.11 -35.2,-128.63 -417.7,-1444.04 -1353.6,-2666.34 -2593.2,-3454.85 -95,-61.33 -192.5,-118.38 -292.1,-173.67 -10.2,-7.4 -21.7,-13.24 -32.1,-19.08 -1.6,0 -1.6,0 -1.6,-1.56 -188.4,-103.64 -384,-198.39 -585.5,-281.65 -80.2,-33.89 -161.2,-66.02 -243.2,-96.31 l -3452.51,1993.42 1263.01,7600.96 6171.1,-3562.8 c 0.4,-9 1,-18.1 1.2,-27.3 3.1,-39.2 4.6,-78.7 4.6,-119.7 1.2,-49.7 2.8,-100.6 2.8,-151.8" /></g><g
         transform="scale(1.11091)"
         id="g26"><path
           id="path28"
           style="fill:#415f81;fill-opacity:1;fill-rule:nonzero;stroke:none"
           d="m 15680.6,15638.4 c -163.5,0 -296.5,-133.1 -296.5,-296.5 0,-163.6 133,-296.6 296.5,-296.6 163.6,0 296.6,133 296.6,296.6 0,163.4 -133,296.5 -296.6,296.5 z m 0,-915.9 c -341.4,0 -619.3,277.8 -619.3,619.4 0,341.4 277.9,619.3 619.3,619.3 341.5,0 619.4,-277.9 619.4,-619.3 0,-341.6 -277.9,-619.4 -619.4,-619.4" /></g><g
         transform="scale(1.2499)"
         id="g30"><path
           id="path32"
           style="fill:#415f81;fill-opacity:1;fill-rule:nonzero;stroke:none"
           d="m 15718,12227.9 c -551.2,0 -921.6,377.8 -921.6,940.2 0,571.5 397.2,970.5 965.9,970.5 247.8,0 390.4,-60.4 440.2,-86.3 70.2,-36.6 97.5,-123.3 60.9,-193.5 -36.7,-70.3 -123.3,-97.6 -193.6,-60.9 -10.5,5.5 -108.9,53.8 -307.5,53.8 -412.5,0 -679,-268.3 -679,-683.6 0,-409.1 237.3,-653.3 634.7,-653.3 183.5,0 307.3,37.5 351.7,59.6 70.8,35.5 156.9,6.7 192.4,-64.1 35.4,-70.8 6.7,-157 -64.1,-192.5 -112.6,-56.3 -292,-89.9 -480,-89.9" /></g><g
         transform="scale(1.2787)"
         id="g34"><path
           id="path36"
           style="fill:#ffffff;fill-opacity:1;fill-rule:evenodd;stroke:none"
           d="m 13149.3,9172.51 c 0,-1095.33 -891.1,-1986.39 -1986.3,-1986.39 h -9.2 c -440.2,2.11 -847.3,147.96 -1176.1,393.36 0,0 -89.78,63.27 -216.16,190.67 -126.45,127.31 -213.57,247.2 -213.57,247.2 -233.76,325.57 -371.4,724.72 -371.4,1155.16 0,664.34 330.03,1281.79 882.93,1651.69 l 51.8,34.9 v 4389.3 c 0,576.7 466.7,1046.7 1042.5,1051.6 h 9.2 c 280.6,0 544.7,-109.4 743.3,-308.2 198.9,-198.4 308.3,-462.5 308.3,-743.4 v -4389.3 l 51.8,-34.9 c 552.7,-369.9 882.9,-987.35 882.9,-1651.69" /></g><g
         transform="scale(1.2787)"
         id="g38"><path
           id="path40"
           style="fill:#f4f1ef;fill-opacity:1;fill-rule:nonzero;stroke:none"
           d="m 13149.3,9172.51 c 0,-1095.33 -891.1,-1986.39 -1986.3,-1986.39 h -9.2 V 16300 h 9.2 c 280.6,0 544.7,-109.4 743.3,-308.2 198.9,-198.4 308.3,-462.5 308.3,-743.4 v -4389.3 l 51.8,-34.9 c 552.7,-369.9 882.9,-987.35 882.9,-1651.69" /></g><g
         transform="scale(1.21345)"
         id="g42"><path
           id="path44"
           style="fill:#da7d81;fill-opacity:1;fill-rule:nonzero;stroke:none"
           d="m 12768.7,9661.02 c 0,-556.27 -451,-1007.21 -1007.2,-1007.21 h -7.9 c -552.6,4.2 -999.6,453.66 -999.6,1007.21 0,455.78 302.7,840.78 718.1,965.08 v 5383.1 c 0,157.4 125.4,285.7 281.5,290.6 3.2,0.2 6.1,0.2 9.4,0.2 80.5,0 153.1,-32.5 205.8,-85.1 52.7,-52.8 85.2,-125.4 85.2,-205.7 v -5384.1 c 413.7,-125.3 714.7,-509.5 714.7,-964.08" /></g><g
         transform="scale(1.21345)"
         id="g46"><path
           id="path48"
           style="fill:#896565;fill-opacity:1;fill-rule:nonzero;stroke:none"
           d="m 12768.7,9661.02 c 0,-556.27 -451,-1007.21 -1007.2,-1007.21 h -7.9 v 1982.59 5663.4 c 3.2,0.2 6.1,0.2 9.4,0.2 80.5,0 153.1,-32.5 205.8,-85.1 52.7,-52.8 85.2,-125.4 85.2,-205.7 v -5384.1 c 413.7,-125.3 714.7,-509.5 714.7,-964.08" /></g><g
         transform="scale(1.15388)"
         id="g50"><path
           id="path52"
           style="fill:#6d99c5;fill-opacity:1;fill-rule:nonzero;stroke:none"
           d="m 13609.7,15989.2 h -375.5 c -85.8,0 -155.3,69.6 -155.3,155.4 0,85.8 69.5,155.4 155.3,155.4 h 375.5 c 85.8,0 155.4,-69.6 155.4,-155.4 0,-85.8 -69.6,-155.4 -155.4,-155.4" /></g><g
         transform="scale(1.0795)"
         id="g54"><path
           id="path56"
           style="fill:#6d99c5;fill-opacity:1;fill-rule:nonzero;stroke:none"
           d="m 14535.1,15967.8 h -407.5 c -91.7,0 -166.1,74.4 -166.1,166.1 0,91.7 74.4,166.1 166.1,166.1 h 407.5 c 91.7,0 166.1,-74.4 166.1,-166.1 0,-91.7 -74.4,-166.1 -166.1,-166.1" /></g><g
         transform="scale(1.00675)"
         id="g58"><path
           id="path60"
           style="fill:#6d99c5;fill-opacity:1;fill-rule:nonzero;stroke:none"
           d="m 15592,15943.8 h -430.4 c -98.3,0 -178.1,79.8 -178.1,178.1 0,98.3 79.8,178.1 178.1,178.1 h 430.4 c 98.3,0 178.1,-79.8 178.1,-178.1 0,-98.3 -79.8,-178.1 -178.1,-178.1" /></g></g></g></svg>